HIERARCHY
ROOT Hips
{
	OFFSET 0.000000 0.000000 0.000000
	CHANNELS 6 Xposition Yposition Zposition Xrotation Yrotation Zrotation
	JOINT LeftUpLeg_virtual
	{
		OFFSET 0.000000 0.000000 0.000000
		CHANNELS 3 Xrotation Yrotation Zrotation
		JOINT LeftUpLeg
		{
			OFFSET 10.205400 -3.823500 0.155100
			CHANNELS 3 Xrotation Yrotation Zrotation
			JOINT LeftLeg
			{
				OFFSET 0.708757 -12.982077 0.567790
				CHANNELS 3 Xrotation Yrotation Zrotation
				JOINT LeftFoot
				{
					OFFSET -0.708756 -10.717838 -2.184338
					CHANNELS 3 Xrotation Yrotation Zrotation
					JOINT LeftToeBase
					{
						OFFSET 0.108149 -7.191104 7.560241
						CHANNELS 3 Xrotation Yrotation Zrotation
						JOINT LeftToe_End
						{
							OFFSET 0.070230 0.081724 4.490308
							CHANNELS 3 Xrotation Yrotation Zrotation
							End Site
							{
								OFFSET 0 0 0
							}
						}
					}
				}
			}
		}
	}
	JOINT RightUpLeg_virtual
	{
		OFFSET 0.000000 0.000000 0.000000
		CHANNELS 3 Xrotation Yrotation Zrotation
		JOINT RightUpLeg
		{
			OFFSET -10.205400 -3.823500 0.005500
			CHANNELS 3 Xrotation Yrotation Zrotation
			JOINT RightLeg
			{
				OFFSET -0.708756 -12.982134 0.610632
				CHANNELS 3 Xrotation Yrotation Zrotation
				JOINT RightFoot
				{
					OFFSET 0.708754 -10.717769 -1.945823
					CHANNELS 3 Xrotation Yrotation Zrotation
					JOINT RightToeBase
					{
						OFFSET -0.108140 -7.191069 7.372968
						CHANNELS 3 Xrotation Yrotation Zrotation
						JOINT RightToe_End
						{
							OFFSET -0.070227 0.081735 4.479403
							CHANNELS 3 Xrotation Yrotation Zrotation
							End Site
							{
								OFFSET 0 0 0
							}
						}
					}
				}
			}
		}
	}
	JOINT Spine_virtual
	{
		OFFSET 0.000000 0.000000 0.000000
		CHANNELS 3 Xrotation Yrotation Zrotation
		JOINT Spine
		{
			OFFSET 0.000000 6.876099 0.125700
			CHANNELS 3 Xrotation Yrotation Zrotation
			JOINT Spine1
			{
				OFFSET 0.000000 5.730043 0.104720
				CHANNELS 3 Xrotation Yrotation Zrotation
				JOINT Spine1_split
				{
					OFFSET 0.000000 5.730043 0.104720
					CHANNELS 3 Xrotation Yrotation Zrotation
					JOINT Spine2
					{
						OFFSET 0.000000 5.730043 0.104720
						CHANNELS 3 Xrotation Yrotation Zrotation
						JOINT Neck_virtual
						{
							OFFSET 0.000000 0.000000 0.000000
							CHANNELS 3 Xrotation Yrotation Zrotation
							JOINT Neck
							{
								OFFSET 0.000000 10.314075 0.188496
								CHANNELS 3 Xrotation Yrotation Zrotation
								JOINT Head
								{
									OFFSET 0.000000 7.643700 -2.377400
									CHANNELS 3 Xrotation Yrotation Zrotation
									JOINT HeadTop_End
									{
										OFFSET 0.000000 43.788605 -13.619600
										CHANNELS 3 Xrotation Yrotation Zrotation
										End Site
										{
											OFFSET 0 0 0
										}
									}
								}
							}
						}
						JOINT LeftShoulder_virtual
						{
							OFFSET 0.000000 0.000000 0.000000
							CHANNELS 3 Xrotation Yrotation Zrotation
							JOINT LeftShoulder
							{
								OFFSET 2.196100 4.412489 0.087492
								CHANNELS 3 Xrotation Yrotation Zrotation
								JOINT LeftShoulder_split
								{
									OFFSET 2.196100 4.412489 0.087492
									CHANNELS 3 Xrotation Yrotation Zrotation
									JOINT LeftArm
									{
										OFFSET 8.771219 -2.981674 -0.026999
										CHANNELS 3 Xrotation Yrotation Zrotation
										JOINT LeftForeArm
										{
											OFFSET 8.512804 0.000000 -0.000000
											CHANNELS 3 Xrotation Yrotation Zrotation
											JOINT LeftHand
											{
												OFFSET 18.484802 0.000000 -0.000000
												CHANNELS 3 Xrotation Yrotation Zrotation
												End Site
												{
													OFFSET 0 0 0
												}
											}
										}
									}
								}
							}
						}
						JOINT RightShoulder_virtual
						{
							OFFSET 0.000000 0.000000 0.000000
							CHANNELS 3 Xrotation Yrotation Zrotation
							JOINT RightShoulder
							{
								OFFSET -2.196100 4.412496 0.070690
								CHANNELS 3 Xrotation Yrotation Zrotation
								JOINT RightShoulder_split
								{
									OFFSET -2.196100 4.412496 0.070690
									CHANNELS 3 Xrotation Yrotation Zrotation
									JOINT RightArm
									{
										OFFSET -8.771282 -2.981682 -0.094208
										CHANNELS 3 Xrotation Yrotation Zrotation
										JOINT RightForeArm
										{
											OFFSET -8.494598 0.000000 0.000000
											CHANNELS 3 Xrotation Yrotation Zrotation
											JOINT RightHand
											{
												OFFSET -18.483803 0.000000 0.000001
												CHANNELS 3 Xrotation Yrotation Zrotation
												End Site
												{
													OFFSET 0 0 0
												}
											}
										}
									}
								}
							}
						}
					}
				}
			}
		}
	}
}
MOTION
Frames: 6
Frame Time: 0.03333333
0.321588 31.736231 -0.104029 0.000000 0.000000 0.000000 7.230639 -17.029837 1.399945 -31.740589 6.013605 10.837930 30.769405 5.164573 0.365579 -7.974265 0.229893 -8.877844 2.286111 -1.240462 -0.500353 0.000000 0.000000 0.000000 8.139532 -18.189426 1.758332 -4.278108 -10.416394 -16.749091 22.671479 -1.168056 3.910950 -25.815361 -8.276500 14.491904 1.203567 1.422512 0.107882 0.000000 0.000000 0.000000 7.798121 -13.853668 1.277402 24.835128 4.789322 -1.206650 2.625422 2.011253 -1.646240 0.591695 1.442002 0.414612 0.000000 0.000000 0.000000 3.807123 1.634998 -0.965817 -14.346843 1.939605 1.702772 -11.618640 10.038508 -2.039795 0.000000 0.000000 0.000000 3.641923 1.991716 -1.112965 6.961575 -21.138746 9.092759 -0.773210 -0.659284 0.808419 -31.538224 -10.831632 -84.852478 -0.278966 -44.504683 -3.110778 0.000000 0.000000 0.000000 4.053550 1.901594 -0.918479 12.126637 25.845415 -20.069951 -5.056120 1.631380 -1.165529 -43.172560 1.278694 85.854781 -0.609881 60.987531 7.610535 0.000000 0.000000 0.000000 
0.338097 31.738770 -0.131582 0.000000 0.000000 0.000000 7.229034 -17.327147 1.453336 -31.771619 5.893719 10.900274 30.915878 5.394685 0.276139 -8.098100 0.283471 -8.967680 2.390524 -1.236072 -0.518186 0.000000 0.000000 0.000000 8.119570 -18.353541 1.808546 -4.404905 -10.558143 -16.739252 22.687942 -1.097663 3.872057 -25.750512 -8.180186 14.238243 1.400120 1.373961 0.204009 0.000000 0.000000 0.000000 7.735311 -14.145346 1.237007 24.847303 4.751484 -1.152305 2.609980 2.006780 -1.580593 0.564368 1.351583 0.402224 0.000000 0.000000 0.000000 3.834960 1.674979 -0.943966 -14.250933 2.186714 1.600774 -11.713034 10.508171 -2.510562 0.000000 0.000000 0.000000 3.553640 2.005010 -1.080710 6.940213 -20.862278 8.855932 -0.580411 -1.337758 0.943929 -32.049792 -10.999057 -84.638079 -0.660777 -44.688080 -3.373304 0.000000 0.000000 0.000000 4.032913 1.918989 -0.843558 12.012143 25.834216 -19.828236 -5.197221 1.335064 -1.057679 -43.054302 0.493187 86.015222 -1.339936 61.375909 8.204778 0.000000 0.000000 0.000000 
0.368229 31.726776 -0.192425 0.000000 0.000000 0.000000 7.158643 -18.055325 1.517456 -31.798608 5.811632 11.149364 31.210915 5.819041 0.161470 -8.305020 0.427111 -9.152204 2.502153 -1.220363 -0.553379 0.000000 0.000000 0.000000 8.004695 -18.955525 1.864153 -4.782565 -10.626136 -16.756522 22.826250 -0.693211 3.781722 -25.695720 -7.913806 14.045063 1.437237 1.387616 0.165939 0.000000 0.000000 0.000000 7.596751 -14.885434 1.230044 24.827823 4.719558 -1.019391 2.601852 2.019630 -1.521554 0.546256 1.228030 0.412620 0.000000 0.000000 0.000000 3.883221 1.716419 -0.924841 -14.156258 2.894179 1.265872 -11.858820 11.583160 -3.294735 0.000000 0.000000 0.000000 3.481306 2.053819 -1.041588 6.820286 -20.598107 8.173380 -0.366601 -1.951178 0.869855 -32.243913 -11.859065 -83.442474 -0.617259 -45.074993 -3.303809 0.000000 0.000000 0.000000 4.046401 1.936794 -0.799591 11.684348 25.665443 -19.312981 -5.361395 1.168973 -0.938629 -43.397188 1.130707 85.676957 -1.923996 61.112578 8.551207 0.000000 0.000000 0.000000 
0.413398 31.704319 -0.285769 0.000000 0.000000 0.000000 7.007623 -19.053733 1.591030 -31.823876 5.804726 11.517031 31.566126 6.412372 0.022868 -8.505059 0.618956 -9.403684 2.591567 -1.194178 -0.589488 0.000000 0.000000 0.000000 7.830532 -19.912752 1.940729 -5.374943 -10.643374 -16.806534 23.117033 0.022508 3.659205 -25.617610 -7.497435 13.902695 1.348020 1.445573 0.031177 0.000000 0.000000 0.000000 7.371027 -15.994302 1.268525 24.790598 4.688563 -0.837949 2.618673 2.045532 -1.471591 0.495873 1.059011 0.506196 0.000000 0.000000 0.000000 3.924398 1.755793 -0.896133 -14.077687 3.936629 0.732839 -11.985608 13.036582 -4.224820 0.000000 0.000000 0.000000 3.451675 2.117224 -1.010274 6.620758 -20.347707 7.096409 -0.180579 -2.333192 0.637664 -32.055700 -13.325882 -81.441571 -0.278615 -45.456367 -3.048990 0.000000 0.000000 0.000000 4.092354 1.960942 -0.784343 11.200662 25.383886 -18.612226 -5.522370 1.142667 -0.743789 -44.164020 3.173629 84.975995 -2.329422 60.296896 8.665833 0.000000 0.000000 0.000000 
0.468284 31.674549 -0.405455 0.000000 0.000000 0.000000 6.802259 -20.200158 1.683494 -31.805261 5.872212 11.939072 31.895686 7.136520 -0.128753 -8.631283 0.809401 -9.679525 2.660951 -1.159985 -0.608130 0.000000 0.000000 0.000000 7.611608 -21.107467 2.049538 -6.115914 -10.647651 -16.866788 23.502775 0.965839 3.494132 -25.509626 -6.998760 13.724341 1.211534 1.521580 -0.154894 0.000000 0.000000 0.000000 7.092170 -17.340670 1.343502 24.759391 4.645496 -0.651323 2.668307 2.077066 -1.430104 0.606355 0.887367 0.590591 0.000000 0.000000 0.000000 3.941900 1.790236 -0.858842 -14.047826 5.168024 0.040483 -12.077839 14.451384 -5.077706 0.000000 0.000000 0.000000 3.450592 2.179723 -0.994852 6.359261 -20.115587 5.751967 -0.130030 -2.383659 0.468513 -31.465664 -15.315893 -78.846181 0.117266 -45.899209 -2.808838 0.000000 0.000000 0.000000 4.148955 1.994735 -0.792466 10.638623 25.054444 -17.836771 -5.626736 1.050722 -0.531159 -45.168806 6.264031 84.034918 -2.627022 59.135853 8.662241 0.000000 0.000000 0.000000 
0.519128 31.640430 -0.540205 0.000000 0.000000 0.000000 6.576786 -21.386726 1.804052 -31.712667 5.973339 12.362476 32.116813 7.936299 -0.265341 -8.646449 0.949788 -9.946810 2.712275 -1.118546 -0.596906 0.000000 0.000000 0.000000 7.381046 -22.371661 2.198684 -6.976111 -10.661335 -16.907047 23.963565 2.030271 3.289070 -25.404685 -6.496938 13.408906 1.108817 1.594901 -0.348780 0.000000 0.000000 0.000000 6.796353 -18.756471 1.436225 24.746952 4.571745 -0.496710 2.732703 2.107231 -1.396285 0.654216 0.615710 0.602211 0.000000 0.000000 0.000000 3.934662 1.809813 -0.818581 -14.110089 6.384571 -0.748371 -12.185515 15.327303 -5.617682 0.000000 0.000000 0.000000 3.459849 2.223654 -1.002246 6.067076 -19.872929 4.304335 -0.084317 -2.103785 0.349854 -30.591092 -17.581890 -75.927368 0.374838 -46.560156 -2.756172 0.000000 0.000000 0.000000 4.205567 2.032250 -0.814465 10.069288 24.759063 -17.109578 -5.566773 0.917562 -0.250695 -46.165484 9.857565 82.918920 -2.844484 57.842666 8.667755 0.000000 0.000000 0.000000 
